<svg width="64" height="64" viewBox="0 0 64 64" fill="none" xmlns="http://www.w3.org/2000/svg">
    <path d="M32 2C15.4315 2 2 15.4315 2 32C2 48.5685 15.4315 62 32 62C48.5685 62 62 48.5685 62 32C62 15.4315 48.5685 2 32 2Z" fill="#34495e"/>
    <path d="M20 32C20 29.7909 21.7909 28 24 28H40C42.2091 28 44 29.7909 44 32C44 34.2091 42.2091 36 40 36H24C21.7909 36 20 34.2091 20 32Z" fill="#2ecc71"/>
    <path d="M32 20C34.2091 20 36 21.7909 36 24V40C36 42.2091 34.2091 44 32 44C29.7909 44 28 42.2091 28 40V24C28 21.7909 29.7909 20 32 20Z" fill="#2ecc71"/>
    <path d="M25.858 25.858C27.0391 24.6768 28.4929 23.7868 30.0962 23.2657C31.6995 22.7446 33.4089 22.6094 35.0673 22.8726C36.7257 23.1358 38.2894 23.7904 39.6291 24.7756C40.9688 25.7608 42.0486 27.0497 42.7766 28.5355M25.858 25.858L22 22M25.858 25.858L22 30" stroke="#ffffff" stroke-width="2" stroke-linecap="round" stroke-linejoin="round"/>
    <path d="M38.142 38.142C36.9609 39.3232 35.5071 40.2132 33.9038 40.7343C32.3005 41.2554 30.5911 41.3906 28.9327 41.1274C27.2743 40.8642 25.7106 40.2096 24.3709 39.2244C23.0312 38.2392 21.9514 36.9503 21.2234 35.4645M38.142 38.142L42 42M38.142 38.142L42 34" stroke="#ffffff" stroke-width="2" stroke-linecap="round" stroke-linejoin="round"/>
    </svg>